# xmcd CD database file
#
# Track frame offsets:
#	150
#	11227
#	24295
#	37836
#	51194
#	64592
#	77982
#	97441
#	109480
#	122936
#	138697
#	152499
#	162702
#	174253
#	189761
#
# Disc length: 3129 seconds
#
# Revision: 0
# Processed by: cddbd v1.5.2PL0 Copyright (c) Steve Scherf et al.
# Submitted via: CDex 1.51
#
DISCID=cc0c370f
DTITLE=Simon Peters - Young Country
DYEAR=2011
DGENRE=Country
TTITLE0=Loves Gonna Live Here
TTITLE1=Crystal Chandeliers
TTITLE2=Young Country
TTITLE3=Thats Why I Sing This Way
TTITLE4=The Dollar
TTITLE5=Lovely Leitrim
TTITLE6=Mr. Jones
TTITLE7=Living My Dream
TTITLE8=Lessons Learned
TTITLE9=The Gambler
TTITLE10=Brown Eyes ft John Hogan
TTITLE11=Offa My Mind
TTITLE12=The Offaly Rover
TTITLE13=Home To Donegal ft Noel Flynn
TTITLE14=Bonus Track
EXTD=YEAR: 2011
EXTT0=
EXTT1=
EXTT2=
EXTT3=
EXTT4=
EXTT5=
EXTT6=
EXTT7=
EXTT8=
EXTT9=
EXTT10=
EXTT11=
EXTT12=
EXTT13=
EXTT14=
PLAYORDER=
